<svg xmlns="http://www.w3.org/2000/svg" data-name="Layer 29" viewBox="0 0 20.1 25.05" id="add-file"><path fill="#d2e4ff" d="M187.55,403.77a1.49,1.49,0,0,1-1.38.92h-6.3a1.61,1.61,0,0,1-1.61-1.61v-6.41a1.49,1.49,0,0,1,.93-1.39,1.41,1.41,0,0,1,.57-.11h-8a4.15,4.15,0,0,0-4.14,4.14v16.77a4.15,4.15,0,0,0,4.14,4.14h11.81a4.15,4.15,0,0,0,4.15-4.14V403.19A1.47,1.47,0,0,1,187.55,403.77Zm-7.23,8.07H179v1.37a1.5,1.5,0,0,1-3,0v-1.37h-1.37a1.5,1.5,0,1,1,0-3H176v-1.37a1.5,1.5,0,0,1,3,0v1.37h1.37a1.5,1.5,0,0,1,0,3Z" transform="translate(-167.57 -395.17)"></path><path fill="#6692ff" d="M187.67 403.19a1.47 1.47 0 01-.12.58 1.49 1.49 0 01-1.38.92h-6.3a1.61 1.61 0 01-1.61-1.61v-6.41a1.49 1.49 0 01.93-1.39 1.41 1.41 0 01.57-.11 1.21 1.21 0 01.38.06.66.66 0 01.2.06 1.64 1.64 0 01.29.16 1.54 1.54 0 01.19.17l.05.05 6.36 6.46h0l.17.21a1.3 1.3 0 01.14.26A1.43 1.43 0 01187.67 403.19zM181.82 410.34a1.5 1.5 0 01-1.5 1.5H179v1.37a1.5 1.5 0 01-3 0v-1.37h-1.37a1.5 1.5 0 110-3H176v-1.37a1.5 1.5 0 013 0v1.37h1.37A1.5 1.5 0 01181.82 410.34z" transform="translate(-167.57 -395.17)"></path></svg>