<svg xmlns="http://www.w3.org/2000/svg" viewBox="0 0 512 512" id="checklist"><path fill="#9bc9ff" fill-rule="evenodd" d="M66.529 72.596c0-10.056 8.183-18.234 18.238-18.234h81.622v22.932H93.467a3.997 3.997 0 0 0-3.997 4.001v391.779a3.997 3.997 0 0 0 3.997 4.001h325.06a3.997 3.997 0 0 0 4.001-4.001V81.296a3.997 3.997 0 0 0-4.001-4.001H345.62V54.363h81.608c10.057 0 18.243 8.174 18.243 18.234v409.178c0 10.059-8.186 18.234-18.243 18.234H84.767c-10.055 0-18.238-8.177-18.238-18.234V72.596zm106.652 94.467 15.512 15.512 15.377-13.944v-8.656c0-4.579-3.805-8.373-8.383-8.373H158.19c-4.579 0-8.368 3.796-8.368 8.373v37.502c0 4.58 3.787 8.373 8.368 8.373h37.497c4.58 0 8.383-3.792 8.383-8.373v-18.038l-12.815 11.622a3.974 3.974 0 0 1-2.686 1.039 3.97 3.97 0 0 1-2.829-1.169l-18.215-18.211a4.008 4.008 0 0 1 .001-5.657 3.995 3.995 0 0 1 5.655 0zm22.506 89.717H158.19c-4.582 0-8.368 3.798-8.368 8.378v37.497c0 4.58 3.787 8.378 8.368 8.378h37.497c4.581 0 8.383-3.797 8.383-8.378v-18.033l-12.815 11.621a3.972 3.972 0 0 1-2.686 1.039 3.969 3.969 0 0 1-2.829-1.174l-18.215-18.206a3.999 3.999 0 1 1 5.658-5.655l15.512 15.512 15.377-13.944v-8.656c-.002-4.583-3.804-8.379-8.385-8.379zm0 105.183H158.19c-4.581 0-8.368 3.793-8.368 8.374v37.501c0 4.581 3.787 8.374 8.368 8.374h37.497c4.58 0 8.383-3.792 8.383-8.374V389.8l-12.815 11.621a3.972 3.972 0 0 1-2.686 1.039 3.968 3.968 0 0 1-2.829-1.169l-18.215-18.211a4.005 4.005 0 0 1 .001-5.653 3.993 3.993 0 0 1 5.656.002l15.512 15.506 15.377-13.944v-8.656c-.001-4.581-3.803-8.372-8.384-8.372z" clip-rule="evenodd"></path><path fill="#57a4ff" fill-rule="evenodd" d="M200.07 407.838c0 2.373-2.01 4.374-4.383 4.374H158.19c-2.373 0-4.368-2-4.368-4.374v-37.501c0-2.373 1.995-4.374 4.368-4.374h37.497c2.373 0 4.383 2 4.383 4.374v6.883l-11.243 10.195-12.818-12.813c-3.118-3.128-8.181-3.128-11.313 0a8.013 8.013 0 0 0 0 11.309l18.215 18.211a7.968 7.968 0 0 0 5.657 2.34c1.92 0 3.84-.689 5.373-2.076l6.129-5.557v9.009zm27.34-55.434-12.469 11.318c-2.75-7.992-10.332-13.762-19.253-13.762H158.19c-11.233 0-20.371 9.143-20.371 20.376v37.501c0 11.233 9.139 20.376 20.371 20.376h37.497c11.242 0 20.381-9.143 20.381-20.376v-23.532l22.094-20.051a7.994 7.994 0 0 0 .547-11.304 8.003 8.003 0 0 0-11.299-.546zm-27.34-49.749c0 2.373-2.01 4.378-4.383 4.378H158.19c-2.373 0-4.368-2.005-4.368-4.378v-37.497c0-2.373 1.995-4.378 4.368-4.378h37.497c2.373 0 4.383 2.005 4.383 4.378v6.883l-11.243 10.195-12.818-12.818c-3.118-3.123-8.181-3.123-11.313 0-3.114 3.123-3.114 8.19 0 11.313l18.215 18.206a7.953 7.953 0 0 0 5.657 2.345c1.92 0 3.84-.689 5.373-2.076l6.129-5.557v9.006zm27.34-55.43-12.469 11.318c-2.75-7.997-10.332-13.762-19.253-13.762H158.19c-11.233 0-20.371 9.138-20.371 20.376v37.497c0 11.238 9.139 20.376 20.371 20.376h37.497c11.242 0 20.381-9.138 20.381-20.376v-23.528l22.094-20.055a7.988 7.988 0 0 0 .547-11.299 7.995 7.995 0 0 0-11.299-.547zm-27.34-87.25v6.883l-11.243 10.195-12.818-12.818c-3.118-3.123-8.181-3.123-11.313 0-3.114 3.128-3.114 8.19 0 11.313l18.215 18.211a7.968 7.968 0 0 0 5.657 2.34c1.92 0 3.84-.689 5.373-2.076l6.129-5.558v9.011c0 2.373-2.01 4.373-4.383 4.373H158.19c-2.373 0-4.368-2-4.368-4.373v-37.502c0-2.368 1.995-4.373 4.368-4.373h37.497c2.374 0 4.383 2.005 4.383 4.374zm-62.251 0v37.502c0 11.233 9.139 20.376 20.371 20.376h37.497c11.242 0 20.381-9.143 20.381-20.376v-23.532l22.094-20.051a7.994 7.994 0 0 0 .547-11.304c-2.968-3.269-8.03-3.515-11.299-.547l-12.469 11.318c-2.75-7.992-10.332-13.762-19.253-13.762H158.19c-11.232-.001-20.371 9.142-20.371 20.376zm115.869 206.879a7.999 7.999 0 0 1 8.001-8.001h104.49a8 8 0 1 1 0 15.998h-104.49a7.999 7.999 0 0 1-8.001-7.997zm0 44.47a7.999 7.999 0 0 1 8.001-8.001h104.49a8 8 0 1 1 0 15.998h-104.49a7.999 7.999 0 0 1-8.001-7.997zm0-149.653a8.002 8.002 0 0 1 8.001-8.001h104.49a8.003 8.003 0 0 1 8.002 8.001 8 8 0 0 1-8.002 8.001h-104.49a7.998 7.998 0 0 1-8.001-8.001zm0 44.47a7.999 7.999 0 0 1 8.001-8.001h104.49a8 8 0 0 1 8.002 8.001 8.002 8.002 0 0 1-8.002 8.001h-104.49a8.002 8.002 0 0 1-8.001-8.001zm0-105.183a7.999 7.999 0 0 1 8.001-7.997h104.49a7.999 7.999 0 1 1 0 15.998h-104.49a8 8 0 0 1-8.001-8.001zm0-44.465a7.999 7.999 0 0 1 8.001-8.001h104.49a8 8 0 1 1 0 15.998h-104.49a7.999 7.999 0 0 1-8.001-7.997zM441.47 481.775V72.596c0-7.85-6.393-14.234-14.243-14.234h-77.608v14.932h68.908a8 8 0 0 1 8.001 8.001v391.779a7.999 7.999 0 0 1-8.001 8.001H93.467a7.999 7.999 0 0 1-7.997-8.001V81.296a7.999 7.999 0 0 1 7.997-8.001h68.922V58.363H84.767c-7.845 0-14.238 6.383-14.238 14.234v409.178c0 7.851 6.393 14.234 14.238 14.234h342.46c7.851-.001 14.243-6.384 14.243-14.234zm-99.852-379.037H170.391a7.999 7.999 0 0 1-8.001-8.001v-5.44h-60.921v375.777h309.058V89.297H349.62v5.44a8.006 8.006 0 0 1-8.002 8.001zM178.387 44.917h40.861a8 8 0 0 0 7.78-6.124C230.26 25.381 242.181 16.011 256 16.011c13.818 0 25.74 9.37 28.967 22.782a8.005 8.005 0 0 0 7.784 6.124h40.87V86.74H178.387V44.917zm248.84-2.557h-77.608v-5.44c0-4.42-3.59-8.001-8.001-8.001h-43.026C291.779 11.624 275.069.008 256 .008c-19.07 0-35.78 11.61-42.592 28.91h-43.017a7.999 7.999 0 0 0-8.001 8.001v5.44H84.767c-16.668 0-30.236 13.564-30.236 30.236v409.178c0 16.673 13.569 30.236 30.236 30.236h342.46c16.673 0 30.241-13.564 30.241-30.236V72.596c0-16.672-13.568-30.236-30.241-30.236z" clip-rule="evenodd"></path></svg>