<svg xmlns="http://www.w3.org/2000/svg" width="33.27" height="33.455" viewBox="0 0 33.27 33.455">
  <path id="dashboard" d="M15.753,3h-9.8A2.919,2.919,0,0,0,3,5.957V21.668a2.919,2.919,0,0,0,2.957,2.957h9.8a2.919,2.919,0,0,0,2.957-2.957V5.957A2.919,2.919,0,0,0,15.753,3Zm-.924,17.559H6.881V6.881h7.763V20.559Zm.924,5.915h-9.8A2.919,2.919,0,0,0,3,29.431v3.881A2.919,2.919,0,0,0,5.957,36.27h9.8a2.919,2.919,0,0,0,2.957-2.957V29.431A2.919,2.919,0,0,0,15.753,26.474Zm-.924,5.915H6.881V30.355h7.763v2.033ZM33.313,14.829h-9.8a2.919,2.919,0,0,0-2.957,2.957V33.5a2.919,2.919,0,0,0,2.957,2.957h9.8A2.919,2.919,0,0,0,36.27,33.5V17.787A2.919,2.919,0,0,0,33.313,14.829Zm-.924,17.559H24.625V18.711h7.763ZM33.313,3h-9.8a2.919,2.919,0,0,0-2.957,2.957V9.839A2.919,2.919,0,0,0,23.516,12.8h9.8A2.919,2.919,0,0,0,36.27,9.839V5.957A2.919,2.919,0,0,0,33.313,3Zm-.924,5.915H24.625V6.881h7.763Z" transform="translate(-3 -3)" fill="#3b65f5"/>
</svg>
