<svg xmlns="http://www.w3.org/2000/svg" xmlns:xlink="http://www.w3.org/1999/xlink" width="26.792" height="27.946" viewBox="0 0 26.792 27.946">
  <defs>
    <linearGradient id="linear-gradient" x1="0.5" x2="0.5" y2="1" gradientUnits="objectBoundingBox">
      <stop offset="0" stop-color="#2900ff"/>
      <stop offset="1" stop-color="#2600ff"/>
      <stop offset="1" stop-color="#545454"/>
    </linearGradient>
  </defs>
  <g id="SVGRepo_iconCarrier" transform="translate(-10.663 0.003)">
    <g id="Group_27" data-name="Group 27" transform="translate(10.666)">
      <g id="Group_26" data-name="Group 26">
        <g id="Group_25" data-name="Group 25">
          <path id="Path_375" data-name="Path 375" d="M68.343,113.109h-.012a.577.577,0,0,0-.576.582.585.585,0,1,0,.588-.582Z" transform="translate(-64.64 -106.936)" stroke="#fff" stroke-width="0.005" fill="url(#linear-gradient)"/>
          <path id="Path_376" data-name="Path 376" d="M36.86,11.642h-.935l1.492-5.075a.582.582,0,0,0-1.071-.439,2.953,2.953,0,0,1-2.4.857c-1.333,0-2.328-.615-2.328-1.164V2.328a2.328,2.328,0,1,0-4.657,0v.582a.582.582,0,0,0,1.164,0V2.328a1.164,1.164,0,0,1,2.328,0V5.821c0,.549-1,1.164-2.328,1.164a2.958,2.958,0,0,1-2.4-.857.582.582,0,0,0-1.071.439l1.492,5.075H24.205L20.479,3.357a1.745,1.745,0,0,0-2.309-.875L12.861,4.87a1.749,1.749,0,0,0-.875,2.309l2.007,4.463H11.248a.582.582,0,0,0-.582.582V22.7A5.245,5.245,0,0,0,15.9,27.94H32.2A5.245,5.245,0,0,0,37.442,22.7V12.224A.582.582,0,0,0,36.86,11.642ZM31.621,7.565a4.606,4.606,0,0,0,2.328.584,5.8,5.8,0,0,0,1.882-.311l-1.119,3.8H31.621V7.565Zm-3.493.584a4.606,4.606,0,0,0,2.328-.584v4.077H27.366l-1.119-3.8A5.784,5.784,0,0,0,28.129,8.149ZM13.047,6.7a.582.582,0,0,1,.291-.77l5.31-2.388a.58.58,0,0,1,.768.291l3.511,7.806H15.268Zm23.231,16A4.079,4.079,0,0,1,32.2,26.776H15.9A4.079,4.079,0,0,1,11.83,22.7v-9.9H36.278Z" transform="translate(-10.666)" stroke="#fff" stroke-width="0.005" fill="url(#linear-gradient)"/>
          <path id="Path_377" data-name="Path 377" d="M203.205,280.542a.573.573,0,0,0,.621-.541,1.76,1.76,0,0,1,3.494.1c0,1.042-.889,1.388-1.76,1.588l-.129.031a.579.579,0,0,0-.437.562v1.455a.582.582,0,0,0,1.164,0v-1c1.545-.442,2.327-1.328,2.327-2.637a2.922,2.922,0,0,0-5.821-.177A.582.582,0,0,0,203.205,280.542Z" transform="translate(-192.185 -262.199)" stroke="#fff" stroke-width="0.005" fill="url(#linear-gradient)"/>
          <path id="Path_378" data-name="Path 378" d="M245.508,426.992a.582.582,0,1,0,.815,0A.583.583,0,0,0,245.508,426.992Z" transform="translate(-232.527 -403.534)" stroke="#fff" stroke-width="0.005" fill="url(#linear-gradient)"/>
        </g>
      </g>
    </g>
  </g>
</svg>
